<svg width="32" height="32" viewBox="0 0 32 32" fill="none" xmlns="http://www.w3.org/2000/svg">
<circle cx="16" cy="16" r="16" fill="#C49E74"/>
<mask id="mask0_1_334" style="mask-type:alpha" maskUnits="userSpaceOnUse" x="0" y="0" width="32" height="32">
<circle cx="16" cy="16" r="15.5" fill="#C4C4C4" stroke="#614848"/>
</mask>
<g mask="url(#mask0_1_334)">
<path d="M15.1965 18.8859C15.1965 19.6749 14.9076 20.2112 14.3297 20.4945C13.9343 20.6868 13.2931 20.7829 12.4061 20.7829H7C7.13177 19.0427 7.19768 17.1152 7.19768 15.0006C7.19768 13.5032 7.41818 12.3574 7.85918 11.5632C8.43706 10.521 9.41536 10 10.7941 10C11.6305 10 12.3401 10.0936 12.9231 10.2807C13.8 10.5641 14.2385 11.0295 14.2385 11.677C14.2385 12.9518 13.1283 14.0319 10.9082 14.9172V14.9703L10.9385 14.9551C11.2021 15.0411 11.7192 15.2814 12.4897 15.676C13.2602 16.0705 13.7417 16.3462 13.9343 16.5031C14.7758 17.1759 15.1965 17.9702 15.1965 18.8859ZM11.7902 11.935C11.7902 11.4645 11.742 11.1332 11.6457 10.9409C11.5038 10.6627 11.2199 10.5236 10.7941 10.5236C10.419 10.5236 10.0971 10.8018 9.82848 11.3583C9.60035 11.8287 9.48629 12.2765 9.48629 12.7014V14.6136H9.60035C10.2593 14.6136 10.7992 14.3228 11.2199 13.741C11.6001 13.2199 11.7902 12.6179 11.7902 11.935ZM12.4745 18.6733C12.4745 17.8387 12.1906 17.0747 11.6229 16.3817C11.0197 15.6482 10.3075 15.2788 9.48629 15.2737C9.48629 17.0545 9.44325 18.7137 9.35703 20.2517H10.7029C11.301 20.2517 11.7369 20.1404 12.0107 19.9178C12.3199 19.6699 12.4745 19.2551 12.4745 18.6733ZM21.842 14.644C21.842 14.988 21.4212 15.6279 20.5798 16.5638C19.9969 17.1657 19.4139 17.7679 18.831 18.3698C19.3633 18.8706 19.9613 19.2981 20.6255 19.6522C20.9852 19.2829 21.2514 18.9667 21.4237 18.7037L21.7811 18.9919C21.0664 20.0291 20.2325 20.7221 19.2796 21.0713C17.1151 19.9836 16.0329 18.7112 16.0329 17.2543C16.0329 16.2426 16.337 15.2991 16.9453 14.4239C17.5535 13.5437 18.3317 12.9164 19.2796 12.5421C20.9877 13.2907 21.842 13.9914 21.842 14.644ZM20.0019 15.9719C20.0019 15.3699 19.3074 14.7046 17.9185 13.9762C17.5485 14.3051 17.3634 14.7376 17.3634 15.2737C17.3634 16.2603 17.7411 17.181 18.4964 18.0359C18.8057 17.7171 19.1122 17.3986 19.4165 17.0797C19.8068 16.6296 20.0019 16.2603 20.0019 15.9719ZM25.0126 20.7829H23.1572C22.9698 20.0797 22.876 19.1058 22.876 17.8614V15.4103C22.876 13.397 22.9267 11.677 23.028 10.2504H24.9062C24.8403 13.2452 24.8072 14.6516 24.8072 14.4695V16.6169C24.8072 18.2154 24.8757 19.6041 25.0126 20.7829Z" fill="white"/>
</g>
</svg>
