<svg width="24" height="24" viewBox="0 0 24 24" fill="none" xmlns="http://www.w3.org/2000/svg">
<path fill-rule="evenodd" clip-rule="evenodd" d="M15.4697 17.5303C15.7626 17.8232 16.2374 17.8232 16.5303 17.5303L20.5303 13.5303C20.8232 13.2374 20.8232 12.7626 20.5303 12.4697L16.5303 8.46967C16.2374 8.17678 15.7626 8.17678 15.4697 8.46967C15.1768 8.76256 15.1768 9.23744 15.4697 9.53033L18.9393 13L15.4697 16.4697C15.1768 16.7626 15.1768 17.2374 15.4697 17.5303Z" fill="#DDDDDD"/>
<path fill-rule="evenodd" clip-rule="evenodd" d="M5.5 12.25C5.08578 12.25 4.75 11.9142 4.75 11.5L4.75 5C4.75 4.58579 4.41421 4.25 4 4.25C3.58579 4.25 3.25 4.58579 3.25 5L3.25 11.5C3.25 12.7427 4.25737 13.75 5.5 13.75L20 13.75C20.4142 13.75 20.75 13.4142 20.75 13C20.75 12.5858 20.4142 12.25 20 12.25L5.5 12.25Z" fill="#DDDDDD"/>
</svg>
