<svg width="28" height="28" viewBox="0 0 28 28" fill="none" xmlns="http://www.w3.org/2000/svg">
<path d="M7.294 4.116H9.66V5.544H7.294V7.91H5.866V5.544H3.5V4.116H5.866V1.75H7.294V4.116Z" fill="#BD9365"/>
<path fill-rule="evenodd" clip-rule="evenodd" d="M14.2771 3.48611C11.9528 3.48611 10.0685 5.37036 10.0685 7.69468V8.87881H6.5542C5.5877 8.87881 4.8042 9.66232 4.8042 10.6288V18.7654C4.8042 23.1146 8.32996 26.6404 12.6792 26.6404H15.8749C20.2241 26.6404 23.7499 23.1146 23.7499 18.7654V10.6288C23.7499 9.66232 22.9664 8.87881 21.9999 8.87881H18.4856V7.69468C18.4856 5.37035 16.6014 3.48611 14.2771 3.48611ZM17.1731 10.1913V12.4311C17.1731 12.7935 17.467 13.0874 17.8294 13.0874C18.1918 13.0874 18.4856 12.7935 18.4856 12.4311V10.1913H21.9999C22.2415 10.1913 22.4374 10.3872 22.4374 10.6288V18.7654C22.4374 22.3898 19.4993 25.3279 15.8749 25.3279H12.6792C9.05483 25.3279 6.1167 22.3898 6.1167 18.7654V10.6288C6.1167 10.3872 6.31257 10.1913 6.5542 10.1913H10.0685V12.4311C10.0685 12.7935 10.3623 13.0874 10.7248 13.0874C11.0872 13.0874 11.381 12.7935 11.381 12.4311V10.1913H17.1731ZM17.1731 8.87881V7.69468C17.1731 6.09523 15.8765 4.79861 14.2771 4.79861C12.6776 4.79861 11.381 6.09523 11.381 7.69468V8.87881H17.1731Z" fill="#282828"/>
</svg>
