<svg width="33" height="32" viewBox="0 0 33 32" fill="none" xmlns="http://www.w3.org/2000/svg">
<path d="M16.6656 3.33334L12.5902 11.6517L3.33316 12.9941L10.0391 19.5501L8.43609 28.6667L16.6656 24.2795L24.8968 28.6667L23.3056 19.5501L29.9998 12.9941L20.794 11.6517L16.6656 3.33334Z" fill="#DDDDDD"/>
<path fill-rule="evenodd" clip-rule="evenodd" d="M16.663 2.33335C17.0438 2.33237 17.392 2.54771 17.5613 2.88878L21.4568 10.7378L30.1441 12.0045C30.5203 12.0594 30.8328 12.3228 30.9506 12.6842C31.0684 13.0456 30.9711 13.4425 30.6995 13.7085L24.3811 19.8964L25.8819 28.4947C25.9476 28.8712 25.7929 29.2523 25.4834 29.4765C25.1739 29.7007 24.7637 29.7289 24.4264 29.5492L16.6656 25.4127L8.90653 29.5491C8.56905 29.729 8.15852 29.7007 7.84894 29.4762C7.53937 29.2516 7.38497 28.8702 7.4512 28.4935L8.96286 19.8964L2.63409 13.7091C2.36206 13.4432 2.2645 13.0459 2.38238 12.6842C2.50026 12.3225 2.81316 12.059 3.18965 12.0044L11.9244 10.7378L15.7675 2.89339C15.9351 2.55145 16.2822 2.33432 16.663 2.33335ZM16.6714 5.59444L13.4882 12.0917C13.3429 12.3883 13.0606 12.594 12.7337 12.6414L5.47894 13.6934L10.7382 18.835C10.9742 19.0658 11.0811 19.3981 11.024 19.7233L9.77632 26.819L16.1951 23.397C16.4891 23.2403 16.8419 23.2403 17.1359 23.397L23.5595 26.8207L22.3205 19.722C22.2638 19.3976 22.3706 19.0661 22.6059 18.8356L27.8577 13.6923L20.6497 12.6413C20.325 12.5939 20.0442 12.3903 19.8983 12.0963L16.6714 5.59444Z" fill="#DDDDDD"/>
</svg>
