<svg width="32" height="32" viewBox="0 0 32 32" fill="none" xmlns="http://www.w3.org/2000/svg">
<path d="M15.9991 3.33334L11.9237 11.6517L2.66666 12.9941L9.37259 19.5501L7.76959 28.6667L15.9991 24.2795L24.2303 28.6667L22.6391 19.5501L29.3333 12.9941L20.1275 11.6517L15.9991 3.33334Z" fill="#FFBF31"/>
<path fill-rule="evenodd" clip-rule="evenodd" d="M15.9965 2.33335C16.3772 2.33237 16.7255 2.54771 16.8948 2.88878L20.7903 10.7378L29.4776 12.0045C29.8538 12.0594 30.1663 12.3228 30.2841 12.6842C30.4019 13.0456 30.3046 13.4425 30.033 13.7085L23.7146 19.8964L25.2154 28.4947C25.2811 28.8712 25.1264 29.2523 24.8169 29.4765C24.5074 29.7007 24.0972 29.7289 23.7599 29.5492L15.9991 25.4127L8.24002 29.5491C7.90255 29.729 7.49201 29.7007 7.18244 29.4762C6.87286 29.2516 6.71847 28.8702 6.7847 28.4935L8.29635 19.8964L1.96759 13.7091C1.69556 13.4432 1.59799 13.0459 1.71587 12.6842C1.83375 12.3225 2.14666 12.059 2.52315 12.0044L11.2579 10.7378L15.101 2.89339C15.2686 2.55145 15.6157 2.33432 15.9965 2.33335ZM16.0049 5.59444L12.8217 12.0917C12.6764 12.3883 12.3941 12.594 12.0672 12.6414L4.81243 13.6934L10.0717 18.835C10.3077 19.0658 10.4146 19.3981 10.3575 19.7233L9.10982 26.819L15.5286 23.397C15.8226 23.2403 16.1754 23.2403 16.4694 23.397L22.8929 26.8207L21.6539 19.722C21.5973 19.3976 21.7041 19.0661 21.9394 18.8356L27.1912 13.6923L19.9832 12.6413C19.6585 12.5939 19.3777 12.3903 19.2318 12.0963L16.0049 5.59444Z" fill="#FFBF31"/>
</svg>
